<?xml version="1.0" encoding="UTF-8"?>
<svg version="1.1" xmlns="http://www.w3.org/2000/svg" width="173" height="200">
<path d="M0 0 C3.61830379 3.00325215 7.05514841 6.14795923 10.21191406 9.63427734 C10.21191406 10.29427734 10.21191406 10.95427734 10.21191406 11.63427734 C10.87191406 11.63427734 11.53191406 11.63427734 12.21191406 11.63427734 C24.9645236 29.46223274 29.37057978 52.12355871 26.21191406 73.63427734 C26.10492188 74.3682373 25.99792969 75.10219727 25.88769531 75.85839844 C22.44629846 97.82505658 12.75212753 118.76409052 -1.78808594 135.63427734 C-2.59890625 136.57787109 -3.40972656 137.52146484 -4.24511719 138.49365234 C-25.58481603 162.79741435 -54.67642183 176.92016307 -86.84667969 179.91943359 C-98.30282433 180.29318016 -108.77420509 176.57902382 -117.60058594 169.32177734 C-126.08275055 158.90083225 -126.28638172 147.00476651 -125.02612305 134.1496582 C-123.62524088 122.41792198 -120.52100389 110.83303119 -116.78808594 99.63427734 C-108.20808594 99.63427734 -99.62808594 99.63427734 -90.78808594 99.63427734 C-91.6128791 103.75824315 -92.64657039 107.44476497 -93.96777344 111.41943359 C-104.80252077 140.66511967 -104.80252077 140.66511967 -102.60058594 170.69677734 C-100.17542128 173.28919474 -98.22468714 173.78427776 -94.78808594 174.63427734 C-84.47877822 173.83549321 -73.14872351 170.10610279 -65.78808594 162.63427734 C-65.12808594 162.63427734 -64.46808594 162.63427734 -63.78808594 162.63427734 C-63.78808594 161.97427734 -63.78808594 161.31427734 -63.78808594 160.63427734 C-62.51964844 159.64427734 -62.51964844 159.64427734 -61.22558594 158.63427734 C-47.26630789 147.29032071 -38.76031737 123.96173918 -36.78808594 106.63427734 C-36.10509935 95.64295828 -36.99827773 84.67631462 -43.78808594 75.63427734 C-49.26050038 69.5562202 -54.97675243 65.95459569 -62.78808594 63.63427734 C-63.92310547 63.28042969 -63.92310547 63.28042969 -65.08105469 62.91943359 C-78.14620772 59.57107779 -90.68965658 62.51631305 -102.78808594 67.63427734 C-103.58859375 67.96298828 -104.38910156 68.29169922 -105.21386719 68.63037109 C-106.7492682 69.27345489 -108.27142288 69.94816787 -109.78808594 70.63427734 C-108.95437443 64.48017001 -105.43254415 60.48571742 -101.78808594 55.63427734 C-101.02496094 54.60302734 -100.26183594 53.57177734 -99.47558594 52.50927734 C-89.83448608 42.19554261 -78.01369599 35.70606988 -63.78808594 34.63427734 C-49.17687634 34.65196646 -35.78327029 38.79647275 -24.91308594 48.94677734 C-13.70239047 61.30309133 -10.86753764 76.40247417 -11.38574219 92.59130859 C-11.90478836 101.18293237 -14.07387131 109.49163345 -16.78808594 117.63427734 C-5.57425006 98.40594206 -1.49765773 76.52587922 -6.88574219 54.77490234 C-11.13875593 39.97220517 -18.54055917 30.07880619 -31.95605469 22.39208984 C-39.78130006 18.24486115 -46.7690869 17.27032221 -55.53808594 17.32177734 C-56.52091553 17.32669189 -57.50374512 17.33160645 -58.51635742 17.33666992 C-65.37028566 17.44766702 -71.37332053 18.10004903 -77.78808594 20.63427734 C-78.93277344 21.06740234 -80.07746094 21.50052734 -81.25683594 21.94677734 C-83.55737386 22.82698316 -85.85118407 23.72511 -88.13574219 24.64599609 C-90.78808594 25.63427734 -90.78808594 25.63427734 -92.78808594 25.63427734 C-92.29378265 21.18554779 -91.03490647 19.62476994 -87.78808594 16.63427734 C-86.69432758 15.39338905 -85.61214725 14.14225326 -84.53808594 12.88427734 C-63.00513434 -11.71174805 -28.12964303 -21.48514789 0 0 Z " fill="#E15A20" transform="translate(136.7880859375,18.36572265625)"/>
<path d="M0 0 C10.61501452 9.91203343 14.86036271 23.45983178 15.36694336 37.66479492 C15.52347362 52.1334552 12.67127189 65.48004459 5.89453125 78.33984375 C5.58435059 78.94103027 5.27416992 79.5422168 4.95458984 80.16162109 C0.40268973 88.98352257 -3.92383071 97.33336761 -11.10546875 104.33984375 C-11.99150636 105.3931569 -12.86651932 106.4558389 -13.73046875 107.52734375 C-16.10546875 110.33984375 -16.10546875 110.33984375 -19.10546875 112.33984375 C-19.53859375 113.10296875 -19.97171875 113.86609375 -20.41796875 114.65234375 C-23.022098 118.7996607 -25.82858968 121.61808797 -30.49609375 123.09765625 C-32.69445541 123.58848543 -34.87797323 124.00819442 -37.10546875 124.33984375 C-37.10546875 124.99984375 -37.10546875 125.65984375 -37.10546875 126.33984375 C-38.09546875 126.66984375 -39.08546875 126.99984375 -40.10546875 127.33984375 C-40.43546875 127.99984375 -40.76546875 128.65984375 -41.10546875 129.33984375 C-43.57951292 129.99597712 -45.96682342 130.52043922 -48.48046875 130.96484375 C-49.20709717 131.09455566 -49.93372559 131.22426758 -50.68237305 131.35791016 C-64.30536631 133.65627254 -76.44425601 132.2317756 -88.10546875 124.33984375 C-94.87733173 118.77186752 -97.73274465 111.57674224 -98.91015625 103.03515625 C-99.82222305 85.77885237 -95.52664173 68.60336268 -90.10546875 52.33984375 C-81.52546875 52.33984375 -72.94546875 52.33984375 -64.10546875 52.33984375 C-64.93026191 56.46380955 -65.9639532 60.15033138 -67.28515625 64.125 C-78.11990358 93.37068608 -78.11990358 93.37068608 -75.91796875 123.40234375 C-73.49280409 125.99476115 -71.54206995 126.48984416 -68.10546875 127.33984375 C-57.79616104 126.54105962 -46.46610632 122.8116692 -39.10546875 115.33984375 C-38.44546875 115.33984375 -37.78546875 115.33984375 -37.10546875 115.33984375 C-37.10546875 114.67984375 -37.10546875 114.01984375 -37.10546875 113.33984375 C-35.83703125 112.34984375 -35.83703125 112.34984375 -34.54296875 111.33984375 C-20.58369071 99.99588712 -12.07770018 76.66730559 -10.10546875 59.33984375 C-9.42248216 48.34852469 -10.31566054 37.38188103 -17.10546875 28.33984375 C-22.57788319 22.2617866 -28.29413524 18.6601621 -36.10546875 16.33984375 C-36.86214844 16.10394531 -37.61882812 15.86804688 -38.3984375 15.625 C-51.46359053 12.2766442 -64.00703939 15.22187945 -76.10546875 20.33984375 C-76.90597656 20.66855469 -77.70648438 20.99726562 -78.53125 21.3359375 C-80.06665102 21.97902129 -81.58880569 22.65373427 -83.10546875 23.33984375 C-82.27175724 17.18573641 -78.74992696 13.19128382 -75.10546875 8.33984375 C-74.34234375 7.30859375 -73.57921875 6.27734375 -72.79296875 5.21484375 C-52.83413145 -16.13647057 -22.88880845 -18.04776177 0 0 Z " fill="#039039" transform="translate(110.10546875,65.66015625)"/>
<path d="M0 0 C8.58 0 17.16 0 26 0 C25.17520684 4.1239658 24.14151555 7.81048763 22.8203125 11.78515625 C11.66282191 41.16168685 11.66282191 41.16168685 14.4375 71 C14.953125 71.66 15.46875 72.32 16 73 C16.66 73.99 17.32 74.98 18 76 C13.25859526 77.31145238 10.75386541 77.22946532 6.375 74.875 C-1.12525478 70.22713413 -5.16415889 64.89352068 -7.76171875 56.5546875 C-11.88568744 38.11503133 -5.81618911 17.44856734 0 0 Z " fill="#045799" transform="translate(20,118)"/>
<path d="M0 0 C0.928125 0.3403125 0.928125 0.3403125 1.875 0.6875 C2.865 0.6875 3.855 0.6875 4.875 0.6875 C4.875 1.6775 4.875 2.6675 4.875 3.6875 C5.535 4.0175 6.195 4.3475 6.875 4.6875 C6.765625 6.91015625 6.765625 6.91015625 5.875 9.6875 C3.79183215 11.41845594 1.92439272 12.7515699 -0.375 14.125 C-1.00398193 14.51260498 -1.63296387 14.90020996 -2.28100586 15.29956055 C-26.57681796 29.96832825 -26.57681796 29.96832825 -36.49609375 28.28515625 C-37.03363281 28.08792969 -37.57117188 27.89070313 -38.125 27.6875 C-36.805 27.3575 -35.485 27.0275 -34.125 26.6875 C-34.125 26.0275 -34.125 25.3675 -34.125 24.6875 C-32.66793274 24.18382243 -31.20929904 23.68467444 -29.75 23.1875 C-28.93789062 22.9090625 -28.12578125 22.630625 -27.2890625 22.34375 C-25.125 21.6875 -25.125 21.6875 -23.125 21.6875 C-22.795 20.6975 -22.465 19.7075 -22.125 18.6875 C-21.50625 18.23375 -20.8875 17.78 -20.25 17.3125 C-17.73359179 15.38818784 -16.73895164 13.39893876 -15.125 10.6875 C-13.49946717 8.98069053 -11.83384005 7.31089805 -10.125 5.6875 C-9.63 5.15125 -9.135 4.615 -8.625 4.0625 C-3.61347926 -0.53139401 -3.61347926 -0.53139401 0 0 Z " fill="#E25A1F" transform="translate(107.125,165.3125)"/>
<path d="M0 0 C1.32 0.66 2.64 1.32 4 2 C4.33 1.34 4.66 0.68 5 0 C6.32 0.33 7.64 0.66 9 1 C8.2575 1.721875 7.515 2.44375 6.75 3.1875 C4.00740933 5.89402914 4.00740933 5.89402914 1.875 8.6875 C0 11 0 11 -3 13 C-3.6496875 14.1446875 -3.6496875 14.1446875 -4.3125 15.3125 C-6.91662925 19.45981695 -9.72312093 22.27824422 -14.390625 23.7578125 C-16.58898666 24.24864168 -18.77250448 24.66835067 -21 25 C-21 25.66 -21 26.32 -21 27 C-21.99 27.33 -22.98 27.66 -24 28 C-24.33 28.66 -24.66 29.32 -25 30 C-26.65 30 -28.3 30 -30 30 C-29.360625 29.896875 -28.72125 29.79375 -28.0625 29.6875 C-27.0415625 29.3471875 -27.0415625 29.3471875 -26 29 C-25.67 28.01 -25.34 27.02 -25 26 C-24.01 26 -23.02 26 -22 26 C-22 25.01 -22 24.02 -22 23 C-18.535 22.505 -18.535 22.505 -15 22 C-15.66 19.03 -16.32 16.06 -17 13 C-15.68 12.34 -14.36 11.68 -13 11 C-11.32665961 10.01120795 -9.65848177 9.01351664 -8 8 C-8.20625 7.21625 -8.4125 6.4325 -8.625 5.625 C-8.74875 4.75875 -8.8725 3.8925 -9 3 C-8.34 2.34 -7.68 1.68 -7 1 C-3.375 1.375 -3.375 1.375 0 2 C0 1.34 0 0.68 0 0 Z " fill="#158C36" transform="translate(94,165)"/>
<path d="M0 0 C0.66 0.33 1.32 0.66 2 1 C0.92578125 2.7578125 -0.1484375 4.515625 -1.22265625 6.2734375 C-1.47917969 6.84320313 -1.73570313 7.41296875 -2 8 C-1.67 8.66 -1.34 9.32 -1 10 C-2.65 10.33 -4.3 10.66 -6 11 C-6.33 12.65 -6.66 14.3 -7 16 C-5.68 16.33 -4.36 16.66 -3 17 C-22.83303257 26.69791573 -22.83303257 26.69791573 -29.37890625 25.6015625 C-29.91386719 25.40304688 -30.44882813 25.20453125 -31 25 C-29.68 24.67 -28.36 24.34 -27 24 C-27 23.34 -27 22.68 -27 22 C-25.54293274 21.49632243 -24.08429904 20.99717444 -22.625 20.5 C-21.81289062 20.2215625 -21.00078125 19.943125 -20.1640625 19.65625 C-18 19 -18 19 -16 19 C-15.67 18.01 -15.34 17.02 -15 16 C-14.38125 15.54625 -13.7625 15.0925 -13.125 14.625 C-10.60859179 12.70068784 -9.61395164 10.71143876 -8 8 C-6.37446717 6.29319053 -4.70884005 4.62339805 -3 3 C-2.401875 2.401875 -1.80375 1.80375 -1.1875 1.1875 C-0.795625 0.795625 -0.40375 0.40375 0 0 Z " fill="#D45F22" transform="translate(100,168)"/>
<path d="M0 0 C0.33 0 0.66 0 1 0 C1 4.62 1 9.24 1 14 C0.34 14 -0.32 14 -1 14 C-1 15.32 -1 16.64 -1 18 C-1.66 18 -2.32 18 -3 18 C-2.896875 18.78375 -2.79375 19.5675 -2.6875 20.375 C-3.07067424 24.81982123 -4.69025548 27.66501643 -6.78125 31.55078125 C-8.16990175 34.11321414 -8.16990175 34.11321414 -8.875 37.625 C-10.23548306 41.70644918 -12.34215382 43.77530991 -15.24609375 46.8671875 C-17.99550515 50.21056974 -19.49895175 53.97234259 -21 58 C-21.99 58 -22.98 58 -24 58 C-22.63408831 54.45756548 -21.09068516 51.07372071 -19.375 47.6875 C-18.92898437 46.80449219 -18.48296875 45.92148438 -18.0234375 45.01171875 C-17.68570313 44.34785156 -17.34796875 43.68398437 -17 43 C-16.34 43 -15.68 43 -15 43 C-14.74863281 42.3296875 -14.49726562 41.659375 -14.23828125 40.96875 C-13.03807635 38.09128714 -11.65121297 35.35390375 -10.23242188 32.57983398 C-4.973174 22.11171887 -2.29223504 11.44600599 0 0 Z " fill="#C25A25" transform="translate(132,101)"/>
<path d="M0 0 C0.66 0.33 1.32 0.66 2 1 C-1.258263 4.9099156 -4.11661592 5.82125212 -9 7 C-11.00361307 7.65572791 -13.00491933 8.31875294 -15 9 C-12.44925089 10.27537455 -11.70184116 9.70461685 -9 9 C-7.41788427 8.93451508 -5.83329919 8.91421619 -4.25 8.9375 C-3.45078125 8.94652344 -2.6515625 8.95554688 -1.828125 8.96484375 C-1.22484375 8.97644531 -0.6215625 8.98804688 0 9 C-9.38510193 13.98646884 -21.07241672 12.60395627 -31 10 C-30.67 9.34 -30.34 8.68 -30 8 C-27.01413351 7.45602833 -24.06903507 7.01303111 -21.0625 6.625 C-9.70097879 5.37982886 -9.70097879 5.37982886 0 0 Z " fill="#127A3D" transform="translate(64,186)"/>
<path d="M0 0 C1.67345374 1.20066904 3.27436679 2.50118667 4.859375 3.81640625 C4.529375 4.80640625 4.199375 5.79640625 3.859375 6.81640625 C3.3025 6.52765625 2.745625 6.23890625 2.171875 5.94140625 C1.40875 5.57015625 0.645625 5.19890625 -0.140625 4.81640625 C-0.90375 4.44515625 -1.666875 4.07390625 -2.453125 3.69140625 C-6.44887592 2.39046409 -10.14716855 1.83608507 -14.0390625 3.75 C-14.95558594 4.30880859 -14.95558594 4.30880859 -15.890625 4.87890625 C-16.963125 5.51828125 -18.035625 6.15765625 -19.140625 6.81640625 C-20.130625 6.48640625 -21.120625 6.15640625 -22.140625 5.81640625 C-20.68225685 1.9716175 -18.77604201 0.63411475 -15.140625 -1.18359375 C-10.0671864 -2.76315917 -4.70246192 -2.60008387 0 0 Z " fill="#0C5785" transform="translate(42.140625,97.18359375)"/>
<path d="M0 0 C0.99 0.33 1.98 0.66 3 1 C1.43902526 2.1063219 -0.12385327 3.20995785 -1.6875 4.3125 C-2.55761719 4.92738281 -3.42773438 5.54226562 -4.32421875 6.17578125 C-12.01310083 11.41769064 -12.01310083 11.41769064 -18 11 C-18 9.35 -18 7.7 -18 6 C-16.35 5.34 -14.7 4.68 -13 4 C-13 3.01 -13 2.02 -13 1 C-12.01 1 -11.02 1 -10 1 C-10 1.66 -10 2.32 -10 3 C-9.34 3 -8.68 3 -8 3 C-7.67 3.66 -7.34 4.32 -7 5 C-6.401875 4.505 -5.80375 4.01 -5.1875 3.5 C-3 2 -3 2 0 2 C0 1.34 0 0.68 0 0 Z " fill="#E25A21" transform="translate(111,173)"/>
<path d="M0 0 C3 2.5625 3 2.5625 5 5 C4.01 5.66 3.02 6.32 2 7 C0.9790625 6.2265625 0.9790625 6.2265625 -0.0625 5.4375 C-3.86863256 3.57492449 -5.92843984 4.03763123 -10 5 C-12.33588323 5.95584438 -12.33588323 5.95584438 -14 7 C-14.66 6.01 -15.32 5.02 -16 4 C-10.72653171 -0.41831127 -6.82310278 -2.00445237 0 0 Z " fill="#0C578A" transform="translate(39,101)"/>
<path d="M0 0 C0.33 0 0.66 0 1 0 C1.18175781 0.60328125 1.36351562 1.2065625 1.55078125 1.828125 C3.41987906 7.85585198 3.41987906 7.85585198 7 13 C2.09199389 14.35753361 -0.35840228 14.15898227 -4.875 11.6875 C-8.82430806 9.35138387 -8.82430806 9.35138387 -10 7 C-9.401875 7.226875 -8.80375 7.45375 -8.1875 7.6875 C-7.1046875 7.8421875 -7.1046875 7.8421875 -6 8 C-4.41666667 6.58333333 -4.41666667 6.58333333 -3 5 C-2.01 5 -1.02 5 0 5 C0 3.35 0 1.7 0 0 Z " fill="#08558C" transform="translate(31,181)"/>
<path d="M0 0 C1.32 0 2.64 0 4 0 C3.41569359 4.8723615 1.28406811 8.51224279 -1.125 12.6875 C-1.52517334 13.39068359 -1.92534668 14.09386719 -2.33764648 14.81835938 C-5.57918606 20.43969008 -9.11314642 25.80086467 -13 31 C-13.33 30.01 -13.66 29.02 -14 28 C-13.67 27.34 -13.34 26.68 -13 26 C-12.34 26 -11.68 26 -11 26 C-10.91878906 25.47277344 -10.83757812 24.94554687 -10.75390625 24.40234375 C-9.52708672 20.49304836 -7.06781097 17.24154313 -4.79492188 13.86523438 C-2.54140002 10.37288676 -1.65989169 8.13919048 -2 4 C-1 1.6875 -1 1.6875 0 0 Z " fill="#BF5225" transform="translate(150,121)"/>
<path d="M0 0 C0.66 0.66 1.32 1.32 2 2 C1.28199219 1.855625 0.56398437 1.71125 -0.17578125 1.5625 C-13.6297379 -0.8501647 -27.45164153 -0.70496196 -41 1 C-30.3103375 -6.12644166 -11.52859917 -4.34815678 0 0 Z " fill="#C0582C" transform="translate(121,10)"/>
<path d="M0 0 C0.33 0 0.66 0 1 0 C1.48458209 13.01641324 0.63538021 24.47092177 -3 37 C-3.33 37 -3.66 37 -4 37 C-4 31.06 -4 25.12 -4 19 C-3.01 18.67 -2.02 18.34 -1 18 C-0.505 9.09 -0.505 9.09 0 0 Z " fill="#177B3B" transform="translate(124,96)"/>
<path d="M0 0 C1.08209949 3.24629847 0.78140875 3.87436498 0 7 C0.33 7.99 0.66 8.98 1 10 C0.18015625 10.47050781 -0.6396875 10.94101563 -1.484375 11.42578125 C-2.56203125 12.04839844 -3.6396875 12.67101562 -4.75 13.3125 C-6.35101563 14.23482422 -6.35101563 14.23482422 -7.984375 15.17578125 C-10.45605163 16.67095351 -12.73560384 18.21376516 -15 20 C-15.66 19.67 -16.32 19.34 -17 19 C-15.68 18.34 -14.36 17.68 -13 17 C-13 16.34 -13 15.68 -13 15 C-12.154375 14.34 -11.30875 13.68 -10.4375 13 C-5.96653478 9.46804419 -3.09685422 4.71857966 0 0 Z " fill="#0D813A" transform="translate(86,164)"/>
<path d="M0 0 C0.66 0 1.32 0 2 0 C2.35998095 19.29897879 2.35998095 19.29897879 0.42578125 27.8515625 C-0.12488973 30.15760858 -0.12488973 30.15760858 0.1875 33.1875 C-0.10172789 37.52591829 -2.52797056 40.52150144 -5 44 C-6.35771395 39.92685816 -4.96183238 37.14672418 -3.625 33.25 C-0.8055409 24.94653802 0.15423585 17.31974502 0.0625 8.5625 C0.05798828 7.73556641 0.05347656 6.90863281 0.04882812 6.05664062 C0.03715811 4.03772854 0.01922718 2.01885426 0 0 Z " fill="#13783D" transform="translate(100,107)"/>
<path d="M0 0 C5.28 0 10.56 0 16 0 C16 0.33 16 0.66 16 1 C11.05 1 6.1 1 1 1 C1.33 3.97 1.66 6.94 2 10 C1.34 10 0.68 10 0 10 C-0.103125 10.70125 -0.20625 11.4025 -0.3125 12.125 C-1.09359003 15.39137647 -2.42058743 18.0471852 -4 21 C-5.00693162 17.87820592 -4.97289724 16.01030331 -4.00390625 12.890625 C-3.77509766 12.13652344 -3.54628906 11.38242188 -3.31054688 10.60546875 C-3.06369141 9.82816406 -2.81683594 9.05085938 -2.5625 8.25 C-2.31951172 7.45722656 -2.07652344 6.66445312 -1.82617188 5.84765625 C-1.22645805 3.89564654 -0.61441879 1.94743117 0 0 Z " fill="#0E5284" transform="translate(20,118)"/>
<path d="M0 0 C-5.00577428 3.14648669 -8.98122677 5.3439299 -15 5 C-15 5.66 -15 6.32 -15 7 C-18.73748114 11.43825885 -22.80355199 13.69190026 -28 16 C-24.87243758 8.45013157 -16.78578536 4.07911907 -9.625 0.9375 C-5.97142555 -0.57116597 -3.77401206 -1.42196189 0 0 Z " fill="#0F7F39" transform="translate(66,56)"/>
<path d="M0 0 C0.33 0.66 0.66 1.32 1 2 C-0.01553817 5.0466145 -1.20762558 7.31143836 -3 10 C-0.36 9.67 2.28 9.34 5 9 C2.51169497 11.48830503 0.1322066 12.30825691 -3.125 13.625 C-4.76855469 14.29402344 -4.76855469 14.29402344 -6.4453125 14.9765625 C-7.28835937 15.31429687 -8.13140625 15.65203125 -9 16 C-8.4498359 11.75151059 -7.01308674 9.19004496 -4.5 5.75 C-3.55640625 4.44289063 -3.55640625 4.44289063 -2.59375 3.109375 C-1 1 -1 1 0 0 Z " fill="#11793B" transform="translate(36,73)"/>
<path d="M0 0 C4.42761914 1.39153744 6.9556255 3.52071486 10 7 C10 7.66 10 8.32 10 9 C10.99 9.33 11.98 9.66 13 10 C14.60546875 12.73046875 14.60546875 12.73046875 16.1875 16.1875 C16.71730469 17.31542969 17.24710938 18.44335938 17.79296875 19.60546875 C19.00112679 23.00316886 19.2437686 25.43014421 19 29 C17.2425194 26.3637791 16.39520342 24.4366603 15.375 21.5 C12.13626868 13.21515546 6.57378746 5.95749489 0 0 Z " fill="#C65424" transform="translate(112,44)"/>
<path d="M0 0 C0.33 0 0.66 0 1 0 C1.02685938 2.14576637 1.04633088 4.29162645 1.0625 6.4375 C1.07410156 7.63246094 1.08570313 8.82742187 1.09765625 10.05859375 C1 13 1 13 0 14 C-0.15620555 15.41327947 -0.25056173 16.8335459 -0.31640625 18.25390625 C-0.35830078 19.10791016 -0.40019531 19.96191406 -0.44335938 20.84179688 C-0.48267578 21.73962891 -0.52199219 22.63746094 -0.5625 23.5625 C-0.60568359 24.46419922 -0.64886719 25.36589844 -0.69335938 26.29492188 C-0.79978142 28.52978485 -0.90179988 30.76476308 -1 33 C-0.34 33.33 0.32 33.66 1 34 C0.34 35.32 -0.32 36.64 -1 38 C-4.30014374 25.73869673 -2.79330102 12.27514851 0 0 Z " fill="#0E4D80" transform="translate(14,139)"/>
<path d="M0 0 C0.33 0.66 0.66 1.32 1 2 C0.67 2.99 0.34 3.98 0 5 C-0.66 5 -1.32 5 -2 5 C-1.34 5.66 -0.68 6.32 0 7 C0.66 6.34 1.32 5.68 2 5 C4.68839385 4.73008094 7.29141936 4.91262643 10 5 C7.42033404 7.57966596 4.90692108 8.33609844 1.5 9.625 C-0.24796875 10.29402344 -0.24796875 10.29402344 -2.03125 10.9765625 C-5 12 -5 12 -7 12 C-6.51452795 7.63075156 -5.21218243 5.92016585 -2 3 C-1.34 2.01 -0.68 1.02 0 0 Z " fill="#BF542A" transform="translate(51,32)"/>
<path d="M0 0 C4.33610648 5.53457526 4.21454541 11.00742098 4.5625 17.8125 C4.60568359 18.60076172 4.64886719 19.38902344 4.69335938 20.20117188 C4.79878321 22.13394215 4.89983094 24.06695026 5 26 C4.34 26.33 3.68 26.66 3 27 C1.702641 24.405282 1.68425346 22.23214561 1.46484375 19.3359375 C1.33432617 17.65371094 1.33432617 17.65371094 1.20117188 15.9375 C1.11416016 14.761875 1.02714844 13.58625 0.9375 12.375 C0.84662109 11.19164063 0.75574219 10.00828125 0.66210938 8.7890625 C0.43767767 5.85963815 0.21714035 2.92997237 0 0 Z " fill="#C45626" transform="translate(131,73)"/>
<path d="M0 0 C0.99 1.485 0.99 1.485 2 3 C1.34 3 0.68 3 0 3 C-0.33 3.66 -0.66 4.32 -1 5 C-1.66 4.34 -2.32 3.68 -3 3 C-4.9931567 2.97624074 -4.9931567 2.97624074 -7.125 3.375 C-9.043125 3.684375 -9.043125 3.684375 -11 4 C-11 2.68 -11 1.36 -11 0 C-6.6895454 -2.28200538 -4.39867298 -2.05271406 0 0 Z " fill="#0D568A" transform="translate(39,107)"/>
<path d="M0 0 C7.66142233 -0.49965798 14.97809967 1.05788869 21 6 C17.04652196 6.22591303 14.63720429 5.45488172 11 4 C8.37665462 3.46796428 5.75008347 3.00001383 3.109375 2.5625 C2.41328125 2.376875 1.7171875 2.19125 1 2 C0.67 1.34 0.34 0.68 0 0 Z " fill="#107A3B" transform="translate(79,54)"/>
<path d="M0 0 C0.33 0 0.66 0 1 0 C1.33772739 2.70784994 1.67030687 5.41616996 2 8.125 C2.09539062 8.88554688 2.19078125 9.64609375 2.2890625 10.4296875 C2.79830188 14.64909952 3.10888068 18.74004344 3 23 C2.34 23 1.68 23 1 23 C-0.87186032 17.56303166 -1.14613573 13.25851354 -0.625 7.5625 C-0.56828125 6.83095703 -0.5115625 6.09941406 -0.453125 5.34570312 C-0.3132963 3.56288714 -0.15824062 1.78127618 0 0 Z " fill="#C4572B" transform="translate(161,59)"/>
<path d="M0 0 C4.13639336 1.59092052 7.23213248 4.60474918 10 8 C10 8.66 10 9.32 10 10 C10.66 10 11.32 10 12 10 C12.99 11.98 13.98 13.96 15 16 C13.0625 15.1875 13.0625 15.1875 11 14 C10.67 13.01 10.34 12.02 10 11 C9.34 11 8.68 11 8 11 C8 10.01 8 9.02 8 8 C7.34 8 6.68 8 6 8 C4.29115995 6.37660195 2.62553283 4.70680947 1 3 C0.34 2.34 -0.32 1.68 -1 1 C-0.67 0.67 -0.34 0.34 0 0 Z " fill="#C75322" transform="translate(137,20)"/>
<path d="M0 0 C0.33 0.99 0.66 1.98 1 3 C1.99 3.33 2.98 3.66 4 4 C4.33333333 5.33333333 4.66666667 6.66666667 5 8 C5.99 8.33 6.98 8.66 8 9 C8.6875 11.0625 8.6875 11.0625 9 13 C8.5875 12.62488281 8.175 12.24976562 7.75 11.86328125 C3.43786842 8.04203965 -1.03440438 4.91486912 -6 2 C-3 0 -3 0 0 0 Z " fill="#0A7F39" transform="translate(86,82)"/>
<path d="M0 0 C0.66 0 1.32 0 2 0 C1.85796663 2.37528151 1.71148388 4.75015251 1.5625 7.125 C1.50352539 8.12273437 1.50352539 8.12273437 1.44335938 9.140625 C1.187848 13.15018817 0.73217587 17.04994196 0 21 C-2.2477975 18.94766315 -3.0022242 17.99332739 -4 15 C-3.01 14.34 -2.02 13.68 -1 13 C-0.41407366 9.88389446 -0.41407366 9.88389446 -0.3125 6.375 C-0.21388672 4.59222656 -0.21388672 4.59222656 -0.11328125 2.7734375 C-0.05720703 1.40058594 -0.05720703 1.40058594 0 0 Z " fill="#154F7C" transform="translate(31,160)"/>
<path d="M0 0 C1.67170295 3.34340589 -0.22071184 6.61516081 -1.3125 10 C-1.53873047 10.73734375 -1.76496094 11.4746875 -1.99804688 12.234375 C-3.74169726 17.74169726 -3.74169726 17.74169726 -6 20 C-7.20306053 16.3908184 -6.70720644 15.65014836 -5.25 12.25 C-4.87875 11.37085937 -4.5075 10.49171875 -4.125 9.5859375 C-3.75375 8.73257813 -3.3825 7.87921875 -3 7 C-2.690625 6.27039063 -2.38125 5.54078125 -2.0625 4.7890625 C-1.38334865 3.18913865 -0.69302715 1.59396244 0 0 Z " fill="#C35528" transform="translate(160,101)"/>
<path d="M0 0 C1.32 0.33 2.64 0.66 4 1 C0.66666667 4.33333333 -2.66666667 7.66666667 -6 11 C-5.67 8.03 -5.34 5.06 -5 2 C-3.68 2 -2.36 2 -1 2 C-0.67 1.34 -0.34 0.68 0 0 Z " fill="#148A37" transform="translate(99,165)"/>
<path d="M0 0 C0.66 0.33 1.32 0.66 2 1 C0.92578125 2.7578125 -0.1484375 4.515625 -1.22265625 6.2734375 C-1.47917969 6.84320313 -1.73570313 7.41296875 -2 8 C-1.67 8.66 -1.34 9.32 -1 10 C-1.928125 9.95875 -2.85625 9.9175 -3.8125 9.875 C-7.15809719 9.72863661 -7.15809719 9.72863661 -10 12 C-8.43873668 8.16780823 -5.97133075 5.82638778 -3 3 C-2.401875 2.401875 -1.80375 1.80375 -1.1875 1.1875 C-0.795625 0.795625 -0.40375 0.40375 0 0 Z " fill="#99702D" transform="translate(100,168)"/>
<path d="M0 0 C0.99 0.33 1.98 0.66 3 1 C1.43902526 2.1063219 -0.12385327 3.20995785 -1.6875 4.3125 C-2.55761719 4.92738281 -3.42773438 5.54226562 -4.32421875 6.17578125 C-9.36872439 9.61488217 -9.36872439 9.61488217 -12 11 C-12.66 10.67 -13.32 10.34 -14 10 C-12.625 8.5 -12.625 8.5 -11 7 C-10.34 7 -9.68 7 -9 7 C-8.67 6.34 -8.34 5.68 -8 5 C-5.06295544 2.9904432 -3.60777515 2 0 2 C0 1.34 0 0.68 0 0 Z " fill="#C55121" transform="translate(111,173)"/>
<path d="M0 0 C0 0.66 0 1.32 0 2 C0.99 2.33 1.98 2.66 3 3 C1.42085985 3.53341184 -0.16354387 4.05125763 -1.75 4.5625 C-2.63171875 4.85253906 -3.5134375 5.14257812 -4.421875 5.44140625 C-7.07834316 6.01697435 -8.47031106 5.89248371 -11 5 C-9.68 4.67 -8.36 4.34 -7 4 C-7 3.34 -7 2.68 -7 2 C-4.35261084 0.5393715 -3.10551666 0 0 0 Z " fill="#9B6B30" transform="translate(80,188)"/>
<path d="M0 0 C4.25264401 4.65765772 6 10.81742008 6 17 C5.34 17 4.68 17 4 17 C4 16.01 4 15.02 4 14 C3.34 13.67 2.68 13.34 2 13 C2 10.36 2 7.72 2 5 C1.34 5 0.68 5 0 5 C0 3.35 0 1.7 0 0 Z " fill="#C6572B" transform="translate(155,42)"/>
<path d="M0 0 C1.32 0 2.64 0 4 0 C3.125 4.75 3.125 4.75 2 7 C-0.0625 7.625 -0.0625 7.625 -2 8 C-1.47731534 5.23723823 -0.89130413 2.6739124 0 0 Z " fill="#D05725" transform="translate(150,121)"/>
<path d="M0 0 C1.32830615 3.98491845 0.23204404 5.40048548 -1.4375 9.1875 C-1.91058594 10.27417969 -2.38367188 11.36085937 -2.87109375 12.48046875 C-3.42990234 13.72763672 -3.42990234 13.72763672 -4 15 C-4.99 15 -5.98 15 -7 15 C-5.63408831 11.45756548 -4.09068516 8.07372071 -2.375 4.6875 C-1.70597656 3.36298828 -1.70597656 3.36298828 -1.0234375 2.01171875 C-0.68570313 1.34785156 -0.34796875 0.68398437 0 0 Z " fill="#A77030" transform="translate(115,144)"/>
<path d="M0 0 C2.12038635 2.61514317 4.13091744 5.19637616 6 8 C-0.4 9.35384615 -0.4 9.35384615 -3.4375 7.5625 C-3.953125 7.046875 -4.46875 6.53125 -5 6 C-2.69 6 -0.38 6 2 6 C1.34 5.34 0.68 4.68 0 4 C0 2.68 0 1.36 0 0 Z " fill="#125871" transform="translate(32,186)"/>
<path d="M0 0 C1.32 0.66 2.64 1.32 4 2 C3.35550393 5.01217112 2.34977818 7.51655836 0.9375 10.25 C0.57527344 10.95640625 0.21304688 11.6628125 -0.16015625 12.390625 C-0.43730469 12.92171875 -0.71445313 13.4528125 -1 14 C-1.33 14 -1.66 14 -2 14 C-2 12.35 -2 10.7 -2 9 C-1.34 9 -0.68 9 0 9 C0 6.03 0 3.06 0 0 Z " fill="#1E8030" transform="translate(113,138)"/>
<path d="M0 0 C-0.66 1.65 -1.32 3.3 -2 5 C-3.9375 4.1875 -3.9375 4.1875 -6 3 C-6.33 2.01 -6.66 1.02 -7 0 C-4.3333581 -1.33332095 -2.83319697 -0.67102033 0 0 Z " fill="#12517D" transform="translate(37,111)"/>
<path d="M0 0 C-0.99 0.495 -0.99 0.495 -2 1 C-2 1.66 -2 2.32 -2 3 C-4.31 4.32 -6.62 5.64 -9 7 C-8.02086745 1.32103121 -5.73500486 -0.46500039 0 0 Z " fill="#0E8B37" transform="translate(88,180)"/>
<path d="M0 0 C0 0.66 0 1.32 0 2 C2.64 2 5.28 2 8 2 C8 2.33 8 2.66 8 3 C3.9472484 3.98248524 0.16138263 4.08159574 -4 4 C-4.33 3.01 -4.66 2.02 -5 1 C-2 0 -2 0 0 0 Z " fill="#CF5520" transform="translate(62,33)"/>
<path d="M0 0 C-3.36736031 2.82858266 -6.87451958 4.4998253 -11 6 C-11.99 5.67 -12.98 5.34 -14 5 C-12.35 4.67 -10.7 4.34 -9 4 C-9 3.34 -9 2.68 -9 2 C-5.86501708 0.14223235 -3.62528568 -0.20140476 0 0 Z " fill="#C1562B" transform="translate(97,184)"/>
<path d="M0 0 C0.33 0 0.66 0 1 0 C1.10251672 5.12583611 1.03590199 9.94997778 0 15 C-0.33 15 -0.66 15 -1 15 C-2.01603857 9.20858017 -1.96263236 5.5415502 0 0 Z " fill="#C1572C" transform="translate(162,83)"/>
<path d="M0 0 C1.32 0.66 2.64 1.32 4 2 C2.68 3.32 1.36 4.64 0 6 C-0.99 5.67 -1.98 5.34 -3 5 C-1.125 1.125 -1.125 1.125 0 0 Z " fill="#15557F" transform="translate(23,98)"/>
<path d="M0 0 C0.33 0 0.66 0 1 0 C1 2.31 1 4.62 1 7 C0.38125 7.144375 -0.2375 7.28875 -0.875 7.4375 C-3.03258322 7.93152225 -3.03258322 7.93152225 -5 9 C-3.50164236 5.88802644 -1.86022073 2.91164984 0 0 Z " fill="#BB6B2A" transform="translate(107,159)"/>
<path d="M0 0 C1.13643966 3.40931897 0.86747764 4.00335456 -0.4375 7.1875 C-0.72496094 7.90292969 -1.01242188 8.61835937 -1.30859375 9.35546875 C-1.53675781 9.89816406 -1.76492187 10.44085938 -2 11 C-2.33 11 -2.66 11 -3 11 C-3.33 8.69 -3.66 6.38 -4 4 C-3.34 4 -2.68 4 -2 4 C-2 3.34 -2 2.68 -2 2 C-1.34 2 -0.68 2 0 2 C0 1.34 0 0.68 0 0 Z " fill="#145180" transform="translate(45,118)"/>
<path d="M0 0 C1.32 1.32 2.64 2.64 4 4 C3.34 4 2.68 4 2 4 C1.67 4.66 1.34 5.32 1 6 C0.34 5.34 -0.32 4.68 -1 4 C-2.31747324 3.30251417 -3.64914193 2.63040043 -5 2 C-3.35 1.34 -1.7 0.68 0 0 Z " fill="#13557C" transform="translate(37,106)"/>
<path d="M0 0 C1.17539996 0.92652701 2.34010577 1.86663387 3.5 2.8125 C4.1496875 3.33457031 4.799375 3.85664062 5.46875 4.39453125 C7 6 7 6 7 9 C6.566875 8.525625 6.13375 8.05125 5.6875 7.5625 C3.97690387 5.76313043 3.97690387 5.76313043 1 5 C0.67 3.35 0.34 1.7 0 0 Z " fill="#1A7A3D" transform="translate(107,64)"/>
<path d="M0 0 C4.92307692 4.18461538 4.92307692 4.18461538 5.3125 8.3125 C5.209375 9.199375 5.10625 10.08625 5 11 C0 3.5 0 3.5 0 0 Z " fill="#12783C" transform="translate(95,95)"/>
<path d="M0 0 C2 1 2 1 3.1875 3.8125 C3.96421451 6.85961076 4.10096399 8.13749363 3 11 C0.84694043 7.14243493 -0.39253254 4.44870215 0 0 Z " fill="#167439" transform="translate(119,80)"/>
<path d="M0 0 C0 0.66 0 1.32 0 2 C-3.96 3.98 -3.96 3.98 -8 6 C-8.66 5.34 -9.32 4.68 -10 4 C-8.71086513 3.32845067 -7.41859796 2.66291141 -6.125 2 C-5.40570313 1.62875 -4.68640625 1.2575 -3.9453125 0.875 C-2 0 -2 0 0 0 Z " fill="#C05327" transform="translate(80,11)"/>
<path d="M0 0 C0 2.64 0 5.28 0 8 C-2.2477975 5.94766315 -3.0022242 4.99332739 -4 2 C-1 0 -1 0 0 0 Z " fill="#10548D" transform="translate(31,173)"/>
<path d="M0 0 C1.0326802 2.78823655 1.04509293 3.8677274 0.0625 6.75 C-0.288125 7.4925 -0.63875 8.235 -1 9 C-1.99 9 -2.98 9 -4 9 C-2.80100302 5.9168649 -1.52299523 2.93720508 0 0 Z " fill="#12763A" transform="translate(91,155)"/>
<path d="M0 0 C-1.39332574 3.36720387 -2.9789286 4.9859524 -6 7 C-5.37162381 3.35541809 -4.14650034 0 0 0 Z " fill="#C35120" transform="translate(130,158)"/>
<path d="" fill="#000000" transform="translate(0,0)"/>
<path d="" fill="#333366" transform="translate(0,0)"/>
<path d="" fill="#555555" transform="translate(0,0)"/>
</svg>
