<?xml version="1.0" encoding="UTF-8"?>
<svg xmlns="http://www.w3.org/2000/svg" xmlns:xlink="http://www.w3.org/1999/xlink" width="250px" height="70px" viewBox="0 0 250 70" version="1.1">
<g id="surface1">
<path style=" stroke:none;fill-rule:nonzero;fill:rgb(1.960784%,14.901961%,30.588235%);fill-opacity:1;" d="M 102.816406 17.375 L 113.238281 17.375 L 112.4375 20.261719 L 112.191406 21.15625 L 110.882812 25.804688 L 111.46875 25.652344 C 115.285156 24.695312 120.242188 24.644531 123.71875 26.617188 C 126.003906 28.109375 126.976562 30.332031 127.5625 32.933594 L 127.6875 33.566406 L 127.988281 33.082031 C 130.335938 29.410156 133.40625 26.628906 137.769531 25.640625 C 141.988281 24.820312 147.109375 24.574219 150.863281 27.058594 C 152.640625 28.402344 153.660156 30.214844 153.984375 32.414062 C 154.222656 34.78125 153.839844 37.0625 153.066406 39.300781 C 152.898438 39.46875 152.898438 39.46875 152.605469 39.492188 L 151.777344 39.492188 L 151.289062 39.488281 L 150.777344 39.488281 L 149.09375 39.484375 L 147.929688 39.484375 L 144.863281 39.480469 L 141.734375 39.476562 L 135.585938 39.46875 L 135.570312 40.769531 L 135.566406 41.140625 C 135.558594 42.082031 135.617188 42.804688 136.257812 43.519531 C 137.632812 44.738281 139.292969 45.132812 141.089844 45.109375 L 141.550781 45.105469 C 144.183594 45.046875 146.746094 44.386719 149.273438 43.679688 C 149.875 43.519531 149.875 43.519531 150.207031 43.519531 C 150.003906 44.53125 149.738281 45.5 149.398438 46.476562 L 149.265625 46.867188 L 148.839844 48.082031 L 148.554688 48.917969 L 147.855469 50.9375 L 145.945312 51.265625 L 145.402344 51.359375 C 143.246094 51.722656 141.15625 51.824219 138.96875 51.828125 L 138.527344 51.828125 C 134.617188 51.820312 130.804688 51.621094 127.8125 48.769531 C 126.386719 47.257812 125.695312 45.421875 125.503906 43.351562 C 125.125 43.839844 124.796875 44.347656 124.476562 44.878906 C 122.253906 48.386719 119.402344 50.601562 115.421875 51.613281 C 112.964844 52.152344 109.988281 52.042969 107.785156 50.792969 C 106.769531 50.132812 106.113281 49.34375 105.335938 48.410156 L 104.664062 51.109375 L 95.253906 51.109375 C 95.632812 49.023438 95.632812 49.023438 95.863281 48.105469 L 96.019531 47.476562 L 96.105469 47.148438 L 96.464844 45.710938 L 96.65625 44.9375 L 100.054688 30.5625 L 100.140625 30.179688 Z M 137.769531 33.058594 C 137.128906 33.894531 136.890625 34.546875 136.59375 35.589844 L 144.496094 35.589844 C 144.800781 34.667969 144.871094 33.464844 144.535156 32.542969 C 144.101562 31.863281 143.566406 31.457031 142.8125 31.203125 C 140.683594 31.023438 139.234375 31.480469 137.769531 33.058594 Z M 108.867188 32.890625 L 108.371094 35.125 L 108.203125 35.878906 L 107.964844 36.976562 L 107.890625 37.3125 C 107.488281 39.144531 107.171875 41.101562 108.027344 42.84375 C 108.714844 43.730469 109.582031 44.277344 110.691406 44.425781 C 112.210938 44.484375 113.273438 44.105469 114.445312 43.148438 C 116.21875 41.480469 117.207031 39.023438 117.320312 36.605469 C 117.28125 35.285156 116.875 34.140625 115.925781 33.230469 C 114.882812 32.496094 114 32.351562 112.753906 32.34375 L 112.410156 32.332031 C 111.195312 32.324219 110.042969 32.613281 108.867188 32.890625 Z M 85.539062 25.121094 C 90.113281 24.96875 94.632812 25.664062 99.121094 26.480469 C 98.613281 28.84375 98.046875 31.1875 97.476562 33.53125 L 95.296875 42.851562 L 95.207031 43.257812 L 94.152344 48.382812 L 93.929688 49.503906 L 93.511719 51.660156 C 92.832031 55.148438 91.878906 58.511719 88.90625 60.730469 C 86.953125 62.039062 84.644531 62.800781 82.316406 63.085938 L 81.90625 63.140625 C 76.808594 63.726562 71.238281 63.027344 66.347656 61.566406 C 66.449219 59.875 66.632812 58.207031 66.863281 56.527344 L 66.960938 55.828125 L 67.1875 54.144531 C 68.054688 54.328125 68.90625 54.53125 69.757812 54.785156 C 73.34375 55.84375 77.386719 56.636719 80.890625 54.949219 C 82.714844 53.894531 83.320312 52.007812 83.835938 50.082031 C 83.972656 49.527344 84.078125 48.972656 84.164062 48.410156 L 83.851562 48.664062 C 80.976562 50.902344 77.574219 51.820312 73.949219 51.367188 C 71.757812 50.992188 69.820312 50.144531 68.363281 48.410156 C 66.578125 45.667969 66.421875 42.535156 67.019531 39.394531 C 67.648438 36.40625 68.972656 33.617188 71.054688 31.375 L 71.289062 31.121094 C 72.351562 29.984375 73.429688 28.996094 74.75 28.167969 L 75.210938 27.871094 C 78.332031 25.929688 81.90625 25.25 85.539062 25.121094 Z M 79.121094 34.914062 C 77.550781 36.839844 76.566406 38.96875 76.769531 41.496094 C 76.957031 42.472656 77.375 43.03125 78.144531 43.648438 C 79.195312 44.363281 80.226562 44.320312 81.476562 44.195312 C 83.300781 43.648438 84.636719 42.257812 85.539062 40.621094 C 86.695312 38.390625 87.691406 35.417969 87.691406 32.890625 C 84.597656 32.152344 81.492188 32.648438 79.121094 34.914062 Z M 14.757812 17.375 L 25.175781 17.375 L 24.378906 20.261719 L 24.128906 21.15625 L 22.824219 25.804688 L 23.40625 25.652344 C 27.226562 24.695312 32.183594 24.644531 35.65625 26.617188 C 37.65625 27.917969 38.6875 29.769531 39.292969 32.046875 C 40.21875 36.535156 38.617188 41.421875 36.265625 45.203125 C 35.703125 46.039062 35.078125 46.808594 34.417969 47.566406 L 34.117188 47.917969 C 31.917969 50.308594 28.652344 51.695312 25.453125 51.832031 C 22.800781 51.894531 20.542969 51.679688 18.488281 49.84375 C 18.074219 49.375 17.679688 48.890625 17.277344 48.410156 L 16.605469 51.109375 L 7.191406 51.109375 C 7.570312 49.023438 7.570312 49.023438 7.804688 48.105469 L 7.960938 47.476562 L 8.402344 45.710938 L 8.597656 44.9375 L 11.996094 30.5625 L 12.078125 30.179688 Z M 20.808594 32.890625 L 20.3125 35.125 L 20.144531 35.878906 L 19.902344 36.976562 L 19.828125 37.3125 C 19.429688 39.144531 19.109375 41.101562 19.96875 42.84375 C 20.65625 43.730469 21.519531 44.277344 22.632812 44.425781 C 24.148438 44.484375 25.210938 44.105469 26.382812 43.148438 C 28.160156 41.480469 29.144531 39.023438 29.261719 36.605469 C 29.21875 35.285156 28.8125 34.140625 27.863281 33.230469 C 26.820312 32.496094 25.9375 32.351562 24.691406 32.34375 L 24.347656 32.332031 C 23.132812 32.324219 21.984375 32.613281 20.808594 32.890625 Z M 41.980469 25.804688 L 52.234375 25.804688 L 50.992188 31.105469 L 50.679688 32.328125 L 50.199219 34.203125 C 48.878906 38.285156 48.878906 38.285156 49.183594 42.394531 C 49.550781 42.933594 49.9375 43.1875 50.550781 43.351562 C 52.164062 43.59375 53.410156 43.25 54.753906 42.339844 C 57.644531 39.957031 58.109375 34.425781 58.839844 31.046875 L 59.113281 29.796875 L 59.960938 25.804688 L 70.046875 25.804688 L 68.859375 30.902344 L 68.570312 32.03125 L 68.421875 32.617188 C 67.128906 37.730469 65.992188 42.867188 64.941406 48.03125 L 64.824219 48.601562 L 64.601562 49.6875 L 64.503906 50.179688 L 64.417969 50.613281 C 64.332031 50.9375 64.332031 50.9375 64.164062 51.109375 C 63.871094 51.125 63.578125 51.128906 63.28125 51.128906 L 62.710938 51.128906 L 62.089844 51.125 L 61.457031 51.125 L 59.789062 51.121094 L 58.089844 51.117188 L 54.753906 51.109375 L 54.921875 48.410156 L 54.28125 49.023438 C 51.890625 51.144531 48.902344 51.851562 45.78125 51.835938 L 45.222656 51.832031 C 43.042969 51.800781 40.945312 51.476562 39.269531 49.9375 C 38.09375 48.644531 37.707031 47.375 37.734375 45.644531 C 37.789062 44.90625 37.921875 44.203125 38.070312 43.480469 L 38.160156 43.03125 C 38.445312 41.648438 38.78125 40.28125 39.125 38.914062 C 40.214844 34.574219 41.109375 30.195312 41.980469 25.804688 Z M 178.609375 27.15625 C 179.472656 27.953125 179.867188 28.714844 180.027344 29.898438 C 180.101562 32.1875 179.519531 34.316406 178.964844 36.519531 L 178.054688 40.285156 L 177.839844 41.183594 C 177.234375 43.722656 176.683594 46.265625 176.160156 48.820312 L 176.078125 49.214844 L 175.933594 49.9375 C 175.769531 50.734375 175.769531 50.734375 175.585938 51.109375 L 165.667969 51.109375 L 166.636719 47.144531 L 166.9375 45.910156 L 168.355469 40.144531 L 167.96875 40.304688 C 167.0625 40.675781 166.160156 40.996094 165.21875 41.269531 L 164.710938 41.421875 L 163.707031 41.703125 C 162.449219 42.066406 161.308594 42.570312 160.449219 43.59375 C 160.238281 44.171875 160.214844 44.59375 160.292969 45.203125 C 160.605469 45.605469 160.847656 45.820312 161.300781 46.046875 C 162.683594 46.128906 163.992188 46.058594 165.332031 45.710938 C 165.113281 46.414062 164.851562 47.066406 164.53125 47.726562 L 164.257812 48.285156 L 163.976562 48.863281 L 163.425781 50.003906 L 163.179688 50.511719 C 162.96875 50.945312 162.96875 50.945312 162.8125 51.445312 C 160.613281 52.550781 156.386719 52.019531 154.101562 51.320312 C 152.410156 50.644531 151.394531 49.601562 150.679688 47.929688 C 150.03125 46.183594 150.179688 44.042969 150.925781 42.359375 C 152.839844 38.894531 155.925781 37.253906 159.609375 36.195312 C 161.359375 35.714844 163.144531 35.347656 164.929688 34.996094 C 167.445312 34.570312 167.445312 34.570312 169.367188 33.058594 C 169.5 32.53125 169.464844 32.277344 169.367188 31.710938 C 168.523438 30.929688 167.726562 30.925781 166.613281 30.941406 L 166.101562 30.945312 C 163 31.03125 160.042969 31.941406 157.132812 32.945312 C 156.734375 33.070312 156.335938 33.152344 155.921875 33.230469 C 156.269531 31.890625 156.675781 30.582031 157.117188 29.277344 L 157.480469 28.210938 L 157.636719 27.742188 C 157.75 27.382812 157.855469 27.019531 157.9375 26.648438 L 160.230469 26.238281 L 161.007812 26.09375 C 174.089844 23.722656 174.089844 23.722656 178.609375 27.15625 Z M 178.609375 27.15625 "/>
<path style=" stroke:none;fill-rule:nonzero;fill:rgb(23.529412%,39.607843%,96.078431%);fill-opacity:1;" d="M 225.160156 36.769531 L 225.328125 37.109375 L 225.691406 37.246094 C 226.289062 37.496094 226.757812 37.863281 227.261719 38.269531 L 227.570312 38.515625 C 228.570312 39.324219 229.515625 40.183594 230.441406 41.070312 L 231.238281 41.820312 C 233.042969 43.53125 234.503906 45.457031 234.8125 48 C 234.660156 49.1875 234.066406 50.140625 233.394531 51.109375 L 233.238281 51.4375 C 232.683594 52.503906 231.675781 53.21875 230.585938 53.65625 C 227.167969 54.59375 223.070312 53.023438 219.832031 51.953125 C 217.382812 51.144531 215 50.816406 212.453125 51.363281 C 209.339844 52.019531 206.140625 51.808594 203.410156 50.070312 C 202.1875 49.199219 201.375 48.203125 200.960938 46.722656 C 201.023438 46.246094 201.023438 46.246094 201.128906 45.878906 L 200.792969 45.878906 C 199.964844 42.535156 199.84375 39.628906 201.527344 36.507812 C 202.128906 35.605469 202.914062 35.164062 203.960938 34.949219 C 204.488281 34.898438 204.984375 34.96875 205.515625 35.027344 C 208.117188 35.320312 210.144531 34.726562 212.605469 33.878906 C 216.714844 32.582031 221.722656 34.445312 225.160156 36.773438 Z M 225.160156 36.769531 "/>
<path style=" stroke:none;fill-rule:nonzero;fill:rgb(1.960784%,14.901961%,30.588235%);fill-opacity:1;" d="M 200.625 25.46875 C 200.519531 27.273438 200.28125 29.046875 200.027344 30.835938 L 199.613281 33.734375 L 198.738281 33.652344 L 198.246094 33.605469 C 196.273438 33.4375 194.367188 33.726562 192.726562 34.914062 C 191.332031 36.097656 190.523438 37.457031 189.960938 39.1875 L 189.8125 39.648438 C 188.824219 42.792969 188.269531 46.042969 187.777344 49.296875 L 187.679688 49.9375 L 187.597656 50.511719 C 187.515625 50.9375 187.515625 50.9375 187.347656 51.109375 C 187.03125 51.125 186.71875 51.128906 186.402344 51.128906 L 185.789062 51.128906 L 185.125 51.125 L 184.449219 51.125 L 182.660156 51.121094 L 180.839844 51.117188 L 177.265625 51.109375 C 177.632812 49.375 178.035156 47.652344 178.464844 45.933594 C 179.996094 39.800781 181.433594 33.660156 182.40625 27.410156 L 182.496094 26.839844 L 182.570312 26.34375 C 182.640625 25.976562 182.640625 25.976562 182.8125 25.804688 C 183.109375 25.789062 183.410156 25.789062 183.710938 25.789062 L 185.566406 25.789062 L 187.265625 25.796875 L 188.992188 25.796875 L 192.386719 25.804688 L 192.050781 28 L 192.46875 27.660156 C 194.816406 25.761719 197.585938 24.410156 200.625 25.46875 Z M 200.625 25.46875 "/>
<path style=" stroke:none;fill-rule:nonzero;fill:rgb(23.529412%,39.607843%,96.078431%);fill-opacity:1;" d="M 228.351562 12.144531 C 227.792969 12.835938 227.207031 13.46875 226.570312 14.089844 C 224.523438 16.089844 222.5625 18.542969 221.96875 21.421875 C 222.011719 21.816406 222.066406 22.210938 222.136719 22.601562 C 222.171875 23.210938 222.171875 23.816406 222.179688 24.425781 L 222.1875 24.902344 C 222.195312 26.546875 221.808594 27.882812 220.898438 29.246094 L 220.707031 29.542969 C 220.121094 30.4375 219.472656 31.070312 218.4375 31.375 C 217.839844 31.425781 217.839844 31.425781 217.1875 31.425781 L 216.535156 31.433594 C 215.367188 31.320312 214.714844 30.773438 213.992188 29.898438 C 213.289062 28.875 213.058594 27.703125 213.230469 26.480469 C 213.777344 24.003906 214.894531 22.222656 217.007812 20.800781 C 217.664062 20.414062 217.992188 20.242188 218.773438 20.242188 L 218.910156 19.746094 L 219.109375 19.226562 L 219.613281 19.0625 L 219.648438 18.695312 C 219.824219 18.066406 220.132812 17.761719 220.578125 17.289062 L 221.019531 16.820312 L 222.304688 15.519531 L 222.578125 15.222656 C 222.808594 15.011719 222.808594 15.011719 223.3125 14.84375 L 223.480469 14.335938 C 223.835938 14.070312 224.207031 13.824219 224.582031 13.589844 L 224.90625 13.386719 C 227.074219 12.035156 227.074219 12.035156 228.351562 12.144531 Z M 217.429688 14.335938 C 217.335938 14.964844 217.089844 15.234375 216.636719 15.664062 L 216.25 16.039062 L 215.832031 16.433594 C 214.621094 17.621094 213.585938 18.765625 212.726562 20.242188 L 212.460938 20.691406 C 211.910156 21.710938 211.339844 22.882812 211.671875 24.054688 C 211.789062 24.34375 211.917969 24.628906 212.046875 24.914062 C 212.777344 26.550781 212.503906 28.734375 211.882812 30.363281 C 211.238281 31.820312 210.363281 33.175781 209.027344 34.070312 C 207.773438 34.492188 206.851562 34.492188 205.667969 33.902344 C 204.621094 33.238281 204.015625 32.34375 203.71875 31.140625 C 203.523438 29.890625 203.574219 28.6875 203.984375 27.492188 L 204.050781 27.089844 C 204.445312 25.378906 205.886719 23.875 207.304688 22.941406 C 208.109375 22.433594 208.109375 22.433594 208.691406 22.433594 L 208.785156 22.03125 C 209.125 21.179688 209.613281 20.4375 210.203125 19.734375 L 210.707031 19.566406 L 210.878906 18.890625 L 211.378906 18.554688 L 211.378906 18.21875 C 211.792969 17.785156 212.269531 17.417969 212.726562 17.039062 L 213.160156 16.65625 C 215.878906 14.335938 215.878906 14.335938 217.429688 14.335938 Z M 209.867188 25.976562 C 210.210938 26.199219 210.210938 26.199219 210.632812 26.007812 C 211.066406 25.847656 211.066406 25.847656 211.214844 25.46875 C 210.613281 25.46875 210.363281 25.652344 209.867188 25.976562 Z M 209.363281 26.480469 L 209.027344 26.816406 L 209.53125 26.988281 Z M 208.691406 26.988281 L 207.851562 28.167969 C 208.511719 27.949219 208.898438 27.675781 209.363281 27.15625 Z M 231.210938 12.3125 L 231.546875 12.3125 C 231.863281 13.117188 231.941406 13.851562 231.9375 14.707031 L 231.929688 15.105469 C 231.875 17.953125 231.136719 20.59375 230.257812 23.28125 C 230.089844 23.832031 230.015625 24.066406 230.199219 24.625 C 230.433594 27.378906 229.816406 29.933594 228.039062 32.09375 C 227.242188 32.960938 226.488281 33.519531 225.296875 33.589844 C 224.046875 33.519531 223.066406 32.9375 222.148438 32.109375 C 221.402344 31.25 221.386719 30.695312 221.410156 29.585938 C 221.59375 27.480469 223.199219 25.617188 224.679688 24.203125 C 226.242188 22.941406 226.242188 22.941406 227.175781 22.941406 L 227.292969 22.601562 C 227.472656 22.1875 227.65625 21.859375 227.902344 21.484375 C 229.417969 19.078125 230.097656 16.210938 230.777344 13.472656 C 231.023438 12.5 231.023438 12.5 231.210938 12.3125 Z M 236.925781 18.722656 C 237.429688 18.890625 237.429688 18.890625 237.613281 19.210938 C 238.742188 22.113281 238.894531 25.695312 237.75 28.640625 L 237.566406 29.050781 C 237.28125 29.6875 237.234375 30.164062 237.261719 30.855469 C 237.316406 32.859375 236.347656 34.285156 235.074219 35.761719 C 234.152344 36.738281 233.238281 37.539062 231.859375 37.640625 C 230.507812 37.585938 229.347656 36.832031 228.4375 35.863281 C 227.800781 35.035156 227.644531 34.292969 227.742188 33.261719 C 228.4375 31.003906 230.628906 29.316406 232.621094 28.253906 C 233.511719 27.878906 234.300781 27.875 235.242188 28 L 235.386719 27.566406 C 235.511719 27.191406 235.644531 26.820312 235.785156 26.457031 C 236.4375 24.679688 236.628906 22.964844 236.757812 21.082031 L 236.8125 20.34375 Z M 240.621094 29.351562 L 241.125 29.519531 C 241.75 31.402344 241.285156 33.785156 240.621094 35.589844 C 240.472656 35.871094 240.320312 36.148438 240.160156 36.421875 C 239.695312 37.265625 239.75 38.050781 239.78125 38.980469 C 239.816406 40.261719 239.515625 41.183594 238.6875 42.160156 C 237.691406 42.980469 237.039062 43.261719 235.734375 43.25 C 234.691406 43.101562 234 42.464844 233.3125 41.703125 C 232.867188 40.734375 232.765625 39.863281 233.089844 38.839844 L 233.394531 38.289062 L 233.660156 37.78125 C 234.328125 36.953125 235.234375 36.265625 236.253906 35.929688 C 236.570312 35.914062 236.890625 35.914062 237.207031 35.917969 L 237.714844 35.921875 L 238.101562 35.929688 C 239.164062 34.25 239.808594 32.625 240.285156 30.699219 L 240.382812 30.3125 Z M 240.621094 29.351562 "/>
</g>
</svg>
